<?xml version="1.0" encoding="UTF-8"?>
<svg id="Layer_2" data-name="Layer 2" xmlns="http://www.w3.org/2000/svg" viewBox="0 0 283.08 323.96">
  <defs>
    <style>
      .cls-1 {
        fill: #fff;
      }
    </style>
  </defs>
  <g id="Layer_1-2" data-name="Layer 1">
    <path class="cls-1" d="M137.98,0c2.33,0,4.67,0,7,0,.98,.83,1.87,1.82,2.97,2.45,42.65,24.58,85.27,49.2,128.04,73.58,5.18,2.95,7.14,6.46,7.1,12.35-.3,48.79-.51,97.59-.3,146.38,.03,6.9-2.51,10.56-8.15,13.78-33.8,19.28-67.47,38.78-101.14,58.3-9.59,5.56-19.01,11.4-28.51,17.12h-7c-7.85-3.9-15.98-7.33-23.51-11.79-32.3-19.11-64.46-38.46-96.57-57.89C11.71,250.54,5.96,246.09,0,241.97,0,188.31,0,134.65,0,80.99c1.99-1.42,3.87-3.03,5.97-4.25C42.03,55.88,78.12,35.09,114.17,14.22,122.17,9.59,130.05,4.75,137.98,0Zm129.74,98.28c-13.51,16.02-26.06,31.09-38.87,45.93-2.62,3.04-3.49,6.04-3.46,9.91,.16,15.99,.18,31.98-.02,47.97-.05,3.64,1.09,5.72,4.25,7.48,11.77,6.56,23.4,13.38,35.1,20.06,.89,.51,1.94,.75,3,1.15V98.28Zm-9.62-13.78c.04-.43,.08-.86,.11-1.29-37.74-21.74-75.47-43.49-113.95-65.66,0,16.25-.09,31.22,.13,46.19,.02,1.54,1.51,3.65,2.91,4.47,15.04,8.86,30.17,17.56,45.38,26.14,1.51,.85,3.73,1.06,5.49,.78,12.09-1.93,24.16-4.03,36.21-6.18,7.92-1.41,15.81-2.97,23.71-4.46ZM15.06,98.41V231.35c14-8.08,27.4-15.71,40.64-23.6,1.15-.69,1.85-3.02,1.86-4.6,.13-16.98,.12-33.96,.02-50.94-.01-1.69-.44-3.76-1.47-5-13.36-16.05-26.87-31.99-41.06-48.81Zm2.82,138.31c38.75,22.38,76.47,44.16,115.44,66.67-7.56-21.03-14.52-40.52-21.64-59.96-.5-1.37-1.96-2.63-3.29-3.41-15.07-8.8-30.18-17.54-45.35-26.16-1.22-.69-3.37-1.12-4.44-.52-13.31,7.48-26.51,15.17-40.72,23.38Zm246.92,0c-13.5-7.81-26.09-14.91-38.45-22.38-3.11-1.88-5.31-1.48-8.13,.17-14.48,8.49-29.07,16.79-43.53,25.32-1.69,1-3.36,2.82-4.03,4.63-6.61,17.9-13.01,35.87-19.44,53.83-.45,1.27-.7,2.62-1.25,4.77,38.52-22.25,76.18-44.01,114.82-66.33ZM23.57,83.77c2.22,.69,3.26,1.15,4.35,1.34,18.89,3.38,37.79,6.78,56.7,10.02,1.74,.3,3.96,.09,5.46-.76,14.93-8.4,29.73-17.02,44.62-25.49,2.4-1.37,3.53-2.92,3.5-5.88-.17-13.82-.06-27.65-.1-41.47,0-1.03-.34-2.05-.59-3.44C99.6,39.94,62.17,61.52,23.57,83.77Zm225.87,9.21c-.1-.19-.2-.38-.3-.57-11.23,1.94-22.48,3.76-33.67,5.87-7.3,1.37-15.23,1.75-21.63,5.02-15.98,8.15-31.27,17.67-46.78,26.73-1.14,.67-2.6,2.05-2.64,3.14-.25,6.42-.12,12.86-.12,20.38,35.63-20.52,70.39-40.54,105.15-60.57Zm-99.23,70.53c5.74,3.36,10.66,6.12,15.44,9.09,2.57,1.6,4.64,1.48,7.31-.1,14.18-8.39,28.54-16.48,42.72-24.86,2.95-1.74,5.73-4.02,8.02-6.56,5.56-6.17,10.81-12.63,16.16-19,4.92-5.87,9.8-11.78,14.7-17.67-.25-.26-.5-.52-.75-.77-34.23,19.79-68.46,39.58-103.59,59.88Zm-2.63,124.5l.86,.16c5.78-16.02,11.56-32.04,17.3-48.08,.27-.75,.21-1.65,.21-2.47,.01-18.31,.04-36.62-.04-54.93,0-1.31-.53-3.23-1.47-3.82-5.28-3.31-10.76-6.31-16.86-9.81v118.95Zm-13.09,.76c.24-.1,.47-.21,.71-.31v-119.41c-5.37,3.03-9.89,5.78-14.59,8.16-2.89,1.46-3.96,3.31-3.91,6.62,.21,13.15,.46,26.32-.03,39.45-.41,11,1.26,21.36,5.41,31.57,4.53,11.15,8.31,22.59,12.42,33.91Zm-2.08-125.22c-35.12-20.32-69.59-40.27-104.05-60.21,7.86,10.87,16.28,20.91,24.85,30.84,3.56,4.12,6.79,9,11.26,11.79,15.08,9.39,30.64,18.04,46.08,26.85,1.27,.72,3.42,1.27,4.52,.69,5.7-2.99,11.19-6.37,17.34-9.96Zm5.7-10.18c0-6.55-.25-12.16,.09-17.73,.21-3.4-1.23-5.08-3.94-6.61-12.6-7.11-25.23-14.18-37.62-21.65-6.07-3.66-12.27-6.24-19.33-7.34-14.48-2.25-28.88-5.03-43.31-7.59-.09,.27-.17,.53-.26,.8,34.51,19.88,69.02,39.76,104.37,60.12Zm36.27,25.14c15.23,8.81,29.68,17.18,44.81,25.93v-51.81c-14.97,8.64-29.42,16.99-44.81,25.88Zm-64.05,3.73c-15.27,8.83-29.76,17.21-44.85,25.93,15.34,8.87,29.77,17.21,44.85,25.93v-51.86Zm61.97-.05v52.04c15.04-8.77,29.51-17.21,44.81-26.13-15.45-8.94-29.8-17.23-44.81-25.91Zm-108.52,22.08c14.91-8.63,29.44-17.04,44.51-25.77-15.03-8.69-29.36-16.97-44.51-25.72v51.49ZM138.74,73.37c-14.99,8.66-29.36,16.97-44.57,25.76,15.31,8.81,29.72,17.09,44.57,25.63v-51.38Zm49.81,25.73c-15.29-8.81-29.7-17.11-44.55-25.67v51.29c14.96-8.6,29.31-16.86,44.55-25.62Z"/>
  </g>
</svg>